<svg id="svg" version="1.1" xmlns="http://www.w3.org/2000/svg" xmlns:xlink="http://www.w3.org/1999/xlink" width="400" height="64.453125" viewBox="0, 0, 400,64.453125"><g id="svgg"><path id="path0" d="M260.182 9.616 C 251.988 9.654,248.549 9.723,248.391 9.855 C 248.032 10.152,248.060 54.871,248.419 55.168 C 248.790 55.476,315.043 55.477,315.414 55.169 C 315.759 54.882,315.803 10.404,315.458 9.965 C 315.232 9.677,286.519 9.496,260.182 9.616 M204.833 9.766 C 188.238 10.375,184.022 13.799,183.096 27.417 C 181.971 43.961,184.857 51.701,192.917 53.754 C 197.888 55.020,202.039 55.335,213.667 55.331 C 237.222 55.324,241.517 53.306,242.090 41.983 C 242.256 38.684,242.804 39.000,236.917 39.000 C 231.215 39.000,231.667 38.830,231.667 40.971 C 231.667 44.909,230.063 46.321,224.833 46.990 C 222.094 47.341,213.849 47.523,209.006 47.339 C 194.927 46.807,193.769 45.686,193.760 32.583 C 193.756 27.201,193.804 26.515,194.371 23.833 C 195.500 18.492,199.143 17.383,215.000 17.550 C 228.792 17.695,230.716 18.426,231.106 23.667 C 231.265 25.808,230.897 25.667,236.333 25.667 C 242.075 25.667,241.596 25.952,241.441 22.625 C 241.102 15.357,239.099 12.606,233.000 11.031 C 231.184 10.562,230.420 10.436,226.667 9.990 C 225.192 9.815,208.239 9.641,204.833 9.766 M1.382 10.447 C 1.323 10.601,1.422 10.992,1.605 11.322 C 2.138 12.280,4.340 16.061,5.835 18.583 C 6.595 19.867,7.629 21.629,8.132 22.500 C 8.635 23.371,9.628 25.058,10.338 26.250 C 11.048 27.442,12.433 29.804,13.416 31.500 C 14.399 33.196,15.936 35.821,16.831 37.333 C 17.727 38.846,19.358 41.621,20.456 43.500 C 21.555 45.379,23.113 48.042,23.919 49.417 C 24.726 50.792,25.726 52.503,26.141 53.221 C 27.253 55.143,26.655 55.000,33.602 55.000 C 40.751 55.000,39.696 55.450,42.006 51.417 C 42.951 49.767,44.448 47.217,45.333 45.750 C 46.217 44.283,47.192 42.633,47.497 42.083 C 47.803 41.533,48.591 40.183,49.249 39.083 C 49.906 37.983,51.084 35.996,51.865 34.667 C 52.647 33.337,53.991 31.067,54.851 29.621 C 56.996 26.020,57.216 25.646,59.080 22.417 C 59.980 20.858,61.134 18.908,61.645 18.083 C 64.076 14.156,65.995 10.611,65.811 10.389 C 65.603 10.139,54.932 10.056,54.545 10.302 C 54.432 10.374,53.242 12.341,51.899 14.675 C 49.579 18.708,46.549 23.968,41.537 32.667 C 40.295 34.821,38.163 38.533,36.799 40.917 C 34.117 45.601,33.830 46.009,33.441 45.687 C 33.206 45.492,31.775 43.087,29.412 38.917 C 28.788 37.817,28.103 36.636,27.888 36.294 C 27.674 35.951,26.386 33.738,25.027 31.377 C 23.668 29.015,22.118 26.333,21.582 25.417 C 21.046 24.500,20.184 23.000,19.667 22.083 C 19.149 21.167,17.666 18.601,16.370 16.381 C 15.074 14.162,13.852 12.025,13.655 11.631 C 12.865 10.058,13.355 10.167,7.049 10.167 C 1.997 10.167,1.480 10.192,1.382 10.447 M72.095 10.429 C 71.695 10.829,71.695 54.338,72.095 54.738 C 72.489 55.132,81.844 55.132,82.238 54.738 C 82.639 54.338,82.639 10.829,82.238 10.429 C 81.844 10.035,72.489 10.035,72.095 10.429 M93.167 10.330 C 92.712 10.617,92.711 54.211,93.165 54.665 C 93.852 55.352,132.726 55.068,138.000 54.337 C 138.688 54.241,139.850 54.084,140.583 53.987 C 147.559 53.061,151.427 50.175,152.662 44.976 C 154.210 38.457,154.163 25.279,152.571 19.701 C 150.736 13.271,146.442 11.116,133.917 10.339 C 130.293 10.114,93.521 10.106,93.167 10.330 M163.367 10.367 C 162.969 10.764,163.090 54.614,163.489 54.827 C 164.067 55.137,173.254 55.055,173.571 54.738 C 173.893 54.417,173.980 11.086,173.661 10.489 C 173.449 10.092,163.756 9.977,163.367 10.367 M323.173 10.489 C 322.853 11.086,322.941 54.417,323.262 54.738 C 323.714 55.190,332.708 55.125,333.167 54.667 C 333.496 54.338,333.500 54.111,333.500 36.843 C 333.500 23.950,333.550 19.322,333.690 19.236 C 333.903 19.104,335.743 20.951,341.179 26.750 C 343.155 28.858,346.680 32.610,349.011 35.086 C 351.343 37.563,356.099 42.625,359.582 46.336 C 363.064 50.047,366.303 53.496,366.780 54.000 L 367.647 54.917 375.390 54.963 C 382.306 55.005,383.162 54.981,383.400 54.743 C 383.805 54.338,383.809 10.833,383.405 10.429 C 383.063 10.087,373.704 10.029,373.367 10.367 C 373.214 10.520,373.167 14.649,373.167 27.936 C 373.167 37.490,373.121 45.425,373.066 45.570 C 372.869 46.081,372.507 45.813,370.555 43.709 C 369.470 42.541,367.830 40.797,366.909 39.834 C 365.988 38.871,364.755 37.558,364.169 36.917 C 363.583 36.275,360.928 33.425,358.270 30.583 C 355.611 27.742,350.299 22.063,346.466 17.963 C 342.632 13.864,339.352 10.432,339.175 10.338 C 338.495 9.974,323.372 10.116,323.173 10.489 M296.137 15.064 C 305.795 16.197,307.053 18.165,307.074 32.167 C 307.100 49.427,306.057 50.163,281.583 50.164 C 258.112 50.164,256.663 49.141,256.669 32.583 C 256.675 18.901,258.237 16.223,266.833 15.160 C 271.219 14.618,291.759 14.551,296.137 15.064 M133.167 18.324 C 141.893 19.231,143.063 20.898,143.059 32.417 C 143.055 44.186,141.885 45.739,132.383 46.581 C 129.097 46.872,104.276 46.950,103.833 46.670 C 103.614 46.532,103.583 44.765,103.583 32.417 C 103.583 20.072,103.614 18.301,103.833 18.155 C 104.198 17.913,130.676 18.065,133.167 18.324 " fill="hsl( 200, 10%, 90% )" ></path></g></svg>